<?xml version="1.0" standalone="no"?>
<!DOCTYPE svg PUBLIC "-//W3C//DTD SVG 20010904//EN"
 "http://www.w3.org/TR/2001/REC-SVG-20010904/DTD/svg10.dtd">
<svg version="1.0" xmlns="http://www.w3.org/2000/svg"
 width="500.000000pt" height="105.000000pt" viewBox="0 0 500.000000 105.000000"
 preserveAspectRatio="xMidYMid meet">

<g transform="translate(0.000000,105.000000) scale(0.100000,-0.100000)"
fill="#ffffff" stroke="none">
<path d="M2660 985 l0 -65 145 0 145 0 0 65 0 65 -145 0 -145 0 0 -65z"/>
<path d="M172 1029 c-37 -11 -78 -66 -86 -119 -6 -36 -66 -832 -66 -876 0 -23
2 -24 75 -24 41 0 75 3 75 7 0 76 64 861 71 867 6 6 12 6 18 0 7 -7 61 -759
61 -851 0 -22 4 -23 78 -23 43 0 81 2 83 4 4 4 -52 756 -65 868 -8 73 -38 123
-86 142 -44 17 -107 20 -158 5z"/>
<path d="M560 525 l0 -516 73 3 72 3 3 513 2 512 -75 0 -75 0 0 -515z"/>
<path d="M1702 583 c3 -507 2 -499 68 -537 30 -18 56 -21 188 -25 l152 -3 0
76 0 76 -114 0 c-91 0 -118 3 -130 16 -14 14 -16 67 -16 435 l0 419 -75 0 -76
0 3 -457z"/>
<path d="M2190 525 l0 -515 75 0 75 0 0 515 0 515 -75 0 -75 0 0 -515z"/>
<path d="M3110 830 l0 -210 -55 0 -55 0 0 -70 0 -70 55 0 55 0 0 -235 0 -235
75 0 75 0 0 515 0 515 -75 0 -75 0 0 -210z"/>
<path d="M3632 1019 c-75 -38 -112 -107 -112 -213 0 -81 15 -129 52 -172 43
-48 90 -67 173 -68 129 -1 206 60 225 180 29 179 -59 294 -225 294 -51 0 -81
-6 -113 -21z m168 -139 c27 -27 29 -129 3 -152 -28 -23 -50 -28 -81 -17 -53
18 -71 112 -31 163 26 33 79 36 109 6z"/>
<path d="M4030 700 l0 -340 -85 0 -86 0 3 -72 3 -73 83 -3 c80 -3 82 -3 82
-28 l0 -24 -162 2 -163 3 -9 46 c-5 26 -6 58 -2 73 6 25 10 26 71 26 l65 0 0
40 0 39 88 3 87 3 0 70 0 70 -250 0 -250 0 -3 -72 -3 -73 91 0 90 0 0 -35 0
-35 -65 0 -65 0 0 -101 c0 -116 13 -154 63 -184 29 -18 55 -20 300 -23 l267
-3 0 515 0 516 -75 0 -75 0 0 -340z"/>
<path d="M960 961 l0 -69 150 -4 c127 -2 152 -6 167 -21 16 -16 18 -45 21
-312 l3 -295 74 0 75 0 0 328 c-1 462 13 442 -300 442 l-190 0 0 -69z"/>
<path d="M4442 796 c3 -219 4 -236 24 -263 42 -57 69 -63 287 -63 l197 0 0 70
0 70 -160 0 c-208 0 -202 -5 -198 158 l3 117 178 3 177 2 0 70 0 70 -256 0
-255 0 3 -234z"/>
<path d="M2585 852 c-3 -8 -5 -38 -5 -67 l0 -54 73 -3 72 -3 3 -36 c3 -30 -2
-39 -25 -54 -37 -24 -51 -43 -62 -85 -9 -30 -71 -496 -71 -529 0 -7 26 -11 75
-11 65 0 75 2 76 18 2 72 57 464 67 474 26 26 36 -15 62 -250 l25 -237 74 -3
c41 -2 77 1 81 5 8 9 -53 466 -71 531 -8 29 -24 53 -46 70 -28 23 -33 33 -33
70 l0 42 70 0 70 0 0 65 0 65 -82 0 c-46 0 -143 2 -215 3 -103 2 -134 -1 -138
-11z"/>
<path d="M4420 330 l0 -69 98 -3 97 -3 3 -128 3 -128 72 3 72 3 5 125 5 125
103 3 102 3 0 69 0 70 -280 0 -280 0 0 -70z"/>
<path d="M950 85 l0 -75 258 2 257 3 3 73 3 72 -261 0 -260 0 0 -75z"/>
</g>
</svg>
